Coordinates
version=1
nRows=16
nColumns=22
inDegrees=yes

Units are S.I. units (second, meters, Newtons, ...)
If the header above contains a line with 'inDegrees', this indicates whether rotational values are in degrees (yes) or radians (no).

endheader
time	pelvis_tilt	pelvis_list	pelvis_rotation	pelvis_tx	pelvis_ty	pelvis_tz	hip_flexion_r	hip_adduction_r	hip_rotation_r	knee_angle_r	ankle_angle_r	subtalar_angle_r	hip_flexion_l	hip_adduction_l	hip_rotation_l	knee_angle_l	ankle_angle_l	subtalar_angle_l	lumbar_extension	lumbar_bending	lumbar_rotation
      5.83000000	     -5.52100053	      3.89983705	   -445.98388899	      0.99385711	      0.92769772	      0.32799605	     32.75239196	      3.54543337	    -25.54699387	    -31.87062827	      3.47869339	     -7.22299221	      2.31674310	    -10.33772027	      1.96910847	    -53.46346103	      2.10599956	     16.08028742	      0.19748186	     12.20066634	    -14.38734795
      5.84000000	     -5.59775232	      3.81957790	   -446.74925614	      0.99139476	      0.92934994	      0.33794717	     32.01013253	      4.25015729	    -24.89010125	    -31.78680102	      3.93833648	     -7.43834383	      3.76939932	    -10.53888278	      2.43205879	    -55.77493344	      2.00049152	     14.81847614	      0.09905983	     12.28642956	    -14.22332346
      5.85000000	     -5.65467700	      3.70230008	   -447.54921214	      0.98880765	      0.93114590	      0.34778199	     31.16875715	      4.96054012	    -24.18354845	    -31.61189483	      4.39378006	     -7.59712602	      5.13955841	    -10.70942007	      2.92458197	    -57.82060482	      2.01508447	     13.44248182	     -0.04204620	     12.33620821	    -14.00382387
      5.86000000	     -5.71199001	      3.59270695	   -448.33947420	      0.98612606	      0.93298901	      0.35744519	     30.28974442	      5.65846688	    -23.49317583	    -31.36532764	      4.83066838	     -7.69502925	      6.50399006	    -10.86529153	      3.49538431	    -59.62347208	      2.09867721	     12.10267011	     -0.16805815	     12.36837414	    -13.80414813
      5.87000000	     -5.76244514	      3.49139234	   -449.13872987	      0.98333663	      0.93486632	      0.36693629	     29.37441262	      6.34516554	    -22.79807979	    -31.04635202	      5.24353050	     -7.74679997	      7.84348379	    -10.99041180	      4.13474581	    -61.16576083	      2.22498192	     10.80726067	     -0.28393590	     12.37845357	    -13.59567704
      5.88000000	     -5.77918355	      3.39243448	   -449.98810196	      0.98040900	      0.93676655	      0.37625940	     28.42635189	      7.01085538	    -22.03911571	    -30.67548151	      5.62849907	     -7.76609954	      9.11858448	    -11.05385969	      4.80033333	    -62.42360705	      2.39577834	      9.55120166	     -0.40598217	     12.33962150	    -13.34214642
      5.89000000	     -5.76893681	      3.30585478	   -450.87841504	      0.97736088	      0.93865050	      0.38541648	     27.46059024	      7.65156856	    -21.23519546	    -30.25959456	      5.98769312	     -7.76366407	     10.33715593	    -11.05891665	      5.50334564	    -63.39890904	      2.60992537	      8.38486582	     -0.52032682	     12.26178630	    -13.05674392
      5.90000000	     -5.73329285	      3.23199306	   -451.81195844	      0.97420208	      0.94049528	      0.39441648	     26.48249464	      8.26649921	    -20.38130874	    -29.80797886	      6.32236259	     -7.74936680	     11.49082427	    -11.00957969	      6.23526339	    -64.09086736	      2.87498786	      7.33602191	     -0.62677866	     12.14981851	    -12.74442483
      5.91000000	     -5.67687579	      3.17033530	   -452.78792668	      0.97093925	      0.94228107	      0.40326700	     25.49625666	      8.85760396	    -19.47437737	    -29.32903820	      6.63189935	     -7.73097757	     12.57380637	    -10.91547140	      6.99034948	    -64.50289072	      3.19889805	      6.42513249	     -0.72629148	     12.01082011	    -12.41260782
      5.92000000	     -5.60654121	      3.12089286	   -453.80215865	      0.96757312	      0.94398908	      0.41198365	     24.50371941	      9.42896249	    -18.51321757	    -28.82668803	      6.91629395	     -7.71583804	     13.58443510	    -10.79490769	      7.75835534	    -64.64117635	      3.58948669	      5.65884991	     -0.81634440	     11.85301967	    -12.06752215
      5.93000000	     -5.53631699	      3.09933715	   -454.86056364	      0.96407050	      0.94559476	      0.42053594	     23.52252683	     10.00037191	    -17.48551687	    -28.29710243	      7.13911375	     -7.71508593	     14.54349413	    -10.68254471	      8.52107268	    -64.52119925	      4.03985258	      5.10424165	     -0.88739135	     11.69121444	    -11.69901858
      5.94000000	     -5.46834688	      3.07766728	   -455.93899689	      0.96047222	      0.94708992	      0.42894578	     22.53333475	     10.55368769	    -16.42626222	    -27.77010487	      7.38768324	     -7.72108761	     15.42576832	    -10.58146242	      9.28699307	    -64.15645159	      4.55817887	      4.51967362	     -0.96578188	     11.52739093	    -11.34280284
      5.95000000	     -5.41349821	      3.08742255	   -457.04925426	      0.95671953	      0.94844311	      0.43721898	     21.55537383	     11.10958352	    -15.33926345	    -27.21989548	      7.60905637	     -7.74195413	     16.26900038	    -10.53584570	     10.01645095	    -63.56737277	      5.12785375	      3.98215622	     -1.01451769	     11.37079248	    -10.97036407
      5.96000000	     -5.37466981	      3.12085513	   -458.18700774	      0.95282324	      0.94965220	      0.44534262	     20.58560811	     11.66357262	    -14.24315865	    -26.65908818	      7.82928867	     -7.78063157	     17.06739815	    -10.56123711	     10.69256999	    -62.76422441	      5.74682829	      3.38892792	     -1.04797445	     11.22873925	    -10.58666570
      5.97000000	     -5.35842677	      3.19381640	   -459.35930929	      0.94876391	      0.95068859	      0.45327347	     19.64490159	     12.23382774	    -13.10505206	    -26.09314026	      8.01175514	     -7.83596169	     17.85601307	    -10.67907331	     11.29466589	    -61.78684351	      6.37831954	      2.81837822	     -1.05415354	     11.10849600	    -10.18874010
      5.98000000	     -5.36183151	      3.29787279	   -460.56198005	      0.94456366	      0.95156142	      0.46103578	     18.72379521	     12.80957234	    -11.94626328	    -25.52827318	      8.18120883	     -7.90171438	     18.62504464	    -10.89087223	     11.80670330	    -60.64533480	      7.01958689	      2.19267827	     -1.03884872	     11.00948836	     -9.77486707
